<svg width="473" height="112" viewBox="0 0 473 112" fill="none" xmlns="http://www.w3.org/2000/svg">
<path d="M8 48.5C3.85786 48.5 0.5 51.8579 0.5 56C0.5 60.1421 3.85786 63.5 8 63.5V56V48.5ZM470.303 61.3033C473.232 58.3744 473.232 53.6256 470.303 50.6967L422.574 2.96699C419.645 0.0380592 414.896 0.0380592 411.967 2.96699C409.038 5.89592 409.038 10.6447 411.967 13.5736L454.393 56L411.967 98.4264C409.038 101.355 409.038 106.104 411.967 109.033C414.896 111.962 419.645 111.962 422.574 109.033L470.303 61.3033ZM8 56V63.5H465V56V48.5H8V56Z" fill="url(#paint0_linear_128_239)"/>
<defs>
<linearGradient id="paint0_linear_128_239" x1="8" y1="56.5" x2="465" y2="56.5" gradientUnits="userSpaceOnUse">
<stop stop-color="#CB3CFF"/>
<stop offset="0.5" stop-color="#982CBF"/>
<stop offset="0.8" stop-color="#CB3CFF"/>
</linearGradient>
</defs>
</svg>
