<svg width="348" height="348" viewBox="0 0 348 348" fill="none" xmlns="http://www.w3.org/2000/svg">
<path fill-rule="evenodd" clip-rule="evenodd" d="M174 232C200.919 232 226.736 221.306 245.771 202.271C264.806 183.236 275.5 157.419 275.5 130.5C275.5 103.581 264.806 77.7636 245.771 58.7287C226.736 39.6937 200.919 29 174 29C147.081 29 121.264 39.6937 102.229 58.7287C83.1937 77.7636 72.5 103.581 72.5 130.5C72.5 157.419 83.1937 183.236 102.229 202.271C121.264 221.306 147.081 232 174 232ZM174 87C169.882 87 167.127 91.93 161.617 101.833L160.196 104.385C158.63 107.199 157.847 108.59 156.629 109.519C155.396 110.447 153.874 110.795 150.829 111.476L148.074 112.114C137.373 114.535 132.023 115.739 130.747 119.828C129.471 123.917 133.125 128.194 140.418 136.72L142.303 138.925C144.377 141.346 145.421 142.55 145.884 144.058C146.348 145.566 146.189 147.175 145.884 150.409L145.595 153.352C144.493 164.734 143.942 170.433 147.262 172.956C150.597 175.479 155.614 173.173 165.634 168.562L168.215 167.374C171.071 166.068 172.492 165.416 174 165.416C175.508 165.416 176.929 166.068 179.785 167.374L182.366 168.562C192.386 173.188 197.403 175.479 200.738 172.956C204.073 170.433 203.507 164.734 202.405 153.352L202.116 150.409C201.811 147.175 201.652 145.566 202.116 144.058C202.579 142.55 203.624 141.346 205.697 138.925L207.582 136.72C214.876 128.194 218.529 123.931 217.253 119.828C215.977 115.739 210.627 114.535 199.926 112.114L197.171 111.476C194.126 110.795 192.604 110.461 191.371 109.519C190.153 108.59 189.37 107.199 187.804 104.385L186.383 101.833C180.873 91.93 178.118 87 174 87Z" fill="url(#paint0_linear_223_80)"/>
<path d="M65.1775 188.428L43.384 210.975C35.554 219.095 31.639 223.141 30.276 226.577C27.1875 234.407 29.841 243.078 36.5545 247.196C39.5125 248.994 44.8195 249.56 55.477 250.676C61.48 251.314 64.496 251.633 67.0045 252.605C72.645 254.765 77.0095 259.304 79.112 265.133C80.04 267.743 80.3445 270.846 80.9535 277.066C82.041 288.086 82.592 293.596 84.332 296.656C88.305 303.616 96.7005 306.356 104.255 303.152C107.561 301.76 111.476 297.7 119.32 289.594L155.309 252.329C136.348 249.424 118.327 242.134 102.68 231.037C87.0322 219.941 74.1909 205.36 65.1775 188.428ZM192.705 252.344L228.694 289.609C236.524 297.729 240.439 301.774 243.745 303.181C251.299 306.371 259.695 303.63 263.668 296.67C265.408 293.625 265.945 288.115 267.032 277.095C267.656 270.86 267.96 267.757 268.888 265.147C270.976 259.318 275.355 254.78 280.995 252.619C283.504 251.648 286.505 251.343 292.523 250.705C303.166 249.574 308.487 249.009 311.445 247.211C318.159 243.093 320.812 234.407 317.724 226.592C316.361 223.155 312.446 219.095 304.616 210.99L282.822 188.428C273.809 205.36 260.968 219.956 245.32 231.052C229.673 242.148 211.652 249.439 192.69 252.344" fill="url(#paint1_linear_223_80)"/>
<defs>
<linearGradient id="paint0_linear_223_80" x1="350" y1="5.99999" x2="25" y2="223" gradientUnits="userSpaceOnUse">
<stop offset="0.25" stop-color="#FFCF07"/>
<stop offset="0.8" stop-color="#FE5A1D"/>
</linearGradient>
<linearGradient id="paint1_linear_223_80" x1="346.5" y1="7.00003" x2="-23" y2="318.5" gradientUnits="userSpaceOnUse">
<stop offset="0.25" stop-color="#FFCF07"/>
<stop offset="0.8" stop-color="#FE5A1D"/>
</linearGradient>
</defs>
</svg>
