<svg width="131" height="131" viewBox="0 0 131 131" fill="none" xmlns="http://www.w3.org/2000/svg">
<rect width="131" height="131" fill="url(#paint0_linear_398_162)"/>
<path d="M57.32 98.96C53.96 98.96 50.9733 98.3467 48.36 97.12C45.7467 95.84 43.6933 94.0533 42.2 91.76C40.76 89.4133 40.04 86.72 40.04 83.68C40.04 81.0667 40.52 78.7733 41.48 76.8C42.44 74.7733 43.6133 73.04 45 71.6C46.44 70.16 47.88 68.96 49.32 68C50.8133 66.9867 52.04 66.1867 53 65.6L57.56 62.96C59.1067 62.0533 60.6 61.0667 62.04 60C63.48 58.9333 64.68 57.7067 65.64 56.32C66.6 54.88 67.08 53.28 67.08 51.52C67.08 49.44 66.3867 47.7067 65 46.32C63.6133 44.9333 61.88 44.24 59.8 44.24C57.72 44.24 55.9867 44.9333 54.6 46.32C53.2133 47.7067 52.52 49.4667 52.52 51.6C52.52 53.04 52.8667 54.4533 53.56 55.84C54.2533 57.2267 55.1067 58.56 56.12 59.84C57.1333 61.0667 58.1467 62.2133 59.16 63.28L91.56 98H81.72L53.32 68.08C52.04 66.7467 50.76 65.28 49.48 63.68C48.2 62.08 47.1067 60.32 46.2 58.4C45.3467 56.4267 44.92 54.2667 44.92 51.92C44.92 49.04 45.5867 46.5333 46.92 44.4C48.3067 42.2133 50.12 40.5067 52.36 39.28C54.6 38.0533 57.08 37.44 59.8 37.44C62.4667 37.44 64.8933 38.0533 67.08 39.28C69.32 40.4533 71.1067 42.1067 72.44 44.24C73.7733 46.3733 74.44 48.8267 74.44 51.6C74.44 54.4267 73.7733 56.9067 72.44 59.04C71.1067 61.12 69.5067 62.9067 67.64 64.4C65.7733 65.84 64.0133 67.04 62.36 68L57.88 70.72C56.5467 71.5733 55.1333 72.5867 53.64 73.76C52.1467 74.88 50.8667 76.24 49.8 77.84C48.7333 79.3867 48.2 81.28 48.2 83.52C48.2 86.1867 49.0533 88.2667 50.76 89.76C52.52 91.2533 54.7867 92 57.56 92C59.32 92 60.8933 91.7067 62.28 91.12C63.6667 90.5333 64.8933 89.76 65.96 88.8C67.08 87.84 68.0667 86.8 68.92 85.68C69.7733 84.5067 70.5733 83.36 71.32 82.24L80.52 68.56H89.08L78.28 85.04C77.48 86.3733 76.4667 87.84 75.24 89.44C74.0133 91.04 72.5733 92.56 70.92 94C69.2667 95.44 67.32 96.64 65.08 97.6C62.8933 98.5067 60.3067 98.96 57.32 98.96Z" fill="white"/>
<defs>
<linearGradient id="paint0_linear_398_162" x1="172.938" y1="-51.8217" x2="4.72455" y2="169.181" gradientUnits="userSpaceOnUse">
<stop offset="0.25" stop-color="#FFCF07"/>
<stop offset="0.8" stop-color="#FE5A1D"/>
</linearGradient>
</defs>
</svg>
